<?xml version="1.0" standalone="no"?>
<!DOCTYPE svg PUBLIC "-//W3C//DTD SVG 20010904//EN"
 "http://www.w3.org/TR/2001/REC-SVG-20010904/DTD/svg10.dtd">
<svg version="1.0" xmlns="http://www.w3.org/2000/svg"
 width="279.000000pt" height="113.000000pt" viewBox="0 0 279.000000 113.000000"
 preserveAspectRatio="xMidYMid meet">
<metadata>
Created by potrace 1.14, written by Peter Selinger 2001-2017
</metadata>
<g transform="translate(0.000000,113.000000) scale(0.100000,-0.100000)"
fill="#9A2EFE" stroke="none">
<path d="M1315 941 c-87 -23 -165 -80 -211 -153 -68 -107 -89 -293 -45 -393
27 -60 62 -99 116 -128 32 -17 57 -22 125 -22 102 0 157 21 222 87 40 39 96
133 86 143 -2 2 -31 8 -63 14 -51 8 -62 7 -70 -6 -67 -103 -87 -118 -165 -118
-51 0 -63 4 -89 29 -41 40 -54 85 -49 170 10 157 101 266 220 266 57 0 103
-29 118 -75 l12 -36 61 7 c34 4 63 8 65 9 2 2 -1 21 -7 42 -16 60 -63 117
-116 143 -51 25 -157 35 -210 21z"/>
<path d="M2005 941 c-87 -23 -165 -80 -211 -153 -68 -107 -89 -293 -45 -393
27 -60 62 -99 116 -128 32 -17 57 -22 125 -22 102 0 157 21 222 87 40 39 96
133 86 143 -2 2 -31 8 -63 14 -51 8 -62 7 -70 -6 -67 -103 -87 -118 -165 -118
-51 0 -63 4 -89 29 -41 40 -54 85 -49 170 10 157 101 266 220 266 57 0 103
-29 118 -75 l12 -36 61 7 c34 4 63 8 65 9 2 2 -1 21 -7 42 -16 60 -63 117
-116 143 -51 25 -157 35 -210 21z"/>
<path d="M421 888 c-6 -29 -38 -185 -70 -346 l-58 -294 221 4 c186 3 228 7
264 22 72 31 132 120 132 196 0 40 -32 90 -72 114 -37 22 -38 24 -16 29 13 4
38 22 56 40 60 62 63 159 6 226 -40 48 -101 61 -290 61 l-163 0 -10 -52z m332
-69 c30 -16 37 -28 37 -67 0 -45 -25 -80 -69 -92 -42 -11 -211 -14 -211 -2 0
4 7 44 16 90 l17 82 94 0 c52 0 104 -5 116 -11z m-24 -294 c51 -26 55 -79 12
-127 l-29 -33 -133 -4 -132 -3 6 23 c3 13 11 54 18 92 l12 67 109 0 c76 0 118
-4 137 -15z"/>
</g>
</svg>
